<svg xmlns="http://www.w3.org/2000/svg" viewBox="0 0 640 360" width="640" height="360">
  <g fill="none" stroke="#FFFFFF" stroke-width="6" stroke-linecap="round" stroke-linejoin="round">
    <path d="M120 175 C180 145, 250 145, 320 175 C390 145, 460 145, 520 175" />
    <path d="M140 190 C195 165, 255 165, 320 190 C385 165, 445 165, 500 190" />
    <path d="M160 205 C210 185, 270 185, 320 205 C370 185, 430 185, 480 205" />
    <path d="M180 220 C225 205, 275 205, 320 220 C365 205, 415 205, 460 220" />
    <path d="M250 150 C270 120, 300 95, 355 78" stroke-dasharray="2 10" stroke-width="4" />
  </g>
  <path fill="#FFFFFF" d="M350 90 L430 55 L395 115 L375 95 L350 90 Z" />
  <path fill="#FFFFFF" d="M375 95 L395 115 L365 108 Z" opacity="0.9" />
  <text x="320" y="280" text-anchor="middle" fill="#FFFFFF" font-family="serif" font-size="42" font-weight="700" letter-spacing="10">LOUGHA PLUS</text>
  <text x="320" y="320" text-anchor="middle" fill="#FFFFFF" font-family="serif" font-size="22" font-style="italic" letter-spacing="1">language courses</text>
</svg>
